999
"DXF R12 Output" (www.mydxf.blogspot.com)
 0 
SECTION
 2 
HEADER
 9 
$ACADVER
 1 
AC1009
 9 
$EXTMIN
 10 
 0 
 20 
 0 
 9 
$EXTMAX
 10 
 8.5 
 20 
 11 
 0 
ENDSEC
 0 
SECTION
 2 
ENTITIES
0
LINE
8
Layer 1
10
61.760000
20
4.649510
11
61.170000
21
4.819510
0
LINE
8
Layer 1
10
61.170000
20
4.819510
11
60.580000
21
4.979510
0
LINE
8
Layer 1
10
60.580000
20
4.979510
11
59.980000
21
5.139510
0
LINE
8
Layer 1
10
59.980000
20
5.139510
11
59.390000
21
5.299510
0
LINE
8
Layer 1
10
59.390000
20
5.299510
11
58.200000
21
5.619510
0
LINE
8
Layer 1
10
58.200000
20
5.619510
11
57.010000
21
5.929510
0
LINE
8
Layer 1
10
57.010000
20
5.929510
11
55.820000
21
6.229510
0
LINE
8
Layer 1
10
55.820000
20
6.229510
11
54.630000
21
6.529510
0
LINE
8
Layer 1
10
54.630000
20
6.529510
11
53.440000
21
6.829510
0
LINE
8
Layer 1
10
53.440000
20
6.829510
11
52.240000
21
7.109510
0
LINE
8
Layer 1
10
52.240000
20
7.109510
11
51.050000
21
7.389510
0
LINE
8
Layer 1
10
51.050000
20
7.389510
11
49.860000
21
7.669510
0
LINE
8
Layer 1
10
49.860000
20
7.669510
11
48.670000
21
7.929510
0
LINE
8
Layer 1
10
48.670000
20
7.929510
11
47.480000
21
8.189510
0
LINE
8
Layer 1
10
47.480000
20
8.189510
11
46.290000
21
8.439510
0
LINE
8
Layer 1
10
46.290000
20
8.439510
11
45.100000
21
8.689510
0
LINE
8
Layer 1
10
45.100000
20
8.689510
11
43.900000
21
8.929510
0
LINE
8
Layer 1
10
43.900000
20
8.929510
11
42.710000
21
9.159510
0
LINE
8
Layer 1
10
42.710000
20
9.159510
11
41.520000
21
9.379510
0
LINE
8
Layer 1
10
41.520000
20
9.379510
11
40.320000
21
9.599510
0
LINE
8
Layer 1
10
40.320000
20
9.599510
11
39.130000
21
9.799510
0
LINE
8
Layer 1
10
39.130000
20
9.799510
11
37.940000
21
9.999510
0
LINE
8
Layer 1
10
37.940000
20
9.999510
11
36.740000
21
10.179500
0
LINE
8
Layer 1
10
36.740000
20
10.179500
11
35.550000
21
10.359500
0
LINE
8
Layer 1
10
35.550000
20
10.359500
11
34.350000
21
10.519500
0
LINE
8
Layer 1
10
34.350000
20
10.519500
11
33.160000
21
10.669500
0
LINE
8
Layer 1
10
33.160000
20
10.669500
11
31.960000
21
10.809500
0
LINE
8
Layer 1
10
31.960000
20
10.809500
11
30.770000
21
10.939500
0
LINE
8
Layer 1
10
30.770000
20
10.939500
11
29.570000
21
11.059500
0
LINE
8
Layer 1
10
29.570000
20
11.059500
11
28.370000
21
11.169500
0
LINE
8
Layer 1
10
28.370000
20
11.169500
11
27.170000
21
11.259500
0
LINE
8
Layer 1
10
27.170000
20
11.259500
11
25.980000
21
11.339500
0
LINE
8
Layer 1
10
25.980000
20
11.339500
11
24.780000
21
11.399500
0
LINE
8
Layer 1
10
24.780000
20
11.399500
11
23.580000
21
11.449500
0
LINE
8
Layer 1
10
23.580000
20
11.449500
11
22.380000
21
11.489500
0
LINE
8
Layer 1
10
22.380000
20
11.489500
11
21.180000
21
11.509500
0
LINE
8
Layer 1
10
21.180000
20
11.509500
11
19.980000
21
11.519500
0
LINE
8
Layer 1
10
19.980000
20
11.519500
11
18.780000
21
11.519500
0
LINE
8
Layer 1
10
18.780000
20
11.519500
11
17.580000
21
11.509500
0
LINE
8
Layer 1
10
17.580000
20
11.509500
11
16.380000
21
11.469500
0
LINE
8
Layer 1
10
16.380000
20
11.469500
11
15.170000
21
11.409500
0
LINE
8
Layer 1
10
15.170000
20
11.409500
11
13.970000
21
11.319500
0
LINE
8
Layer 1
10
13.970000
20
11.319500
11
12.760000
21
11.189500
0
LINE
8
Layer 1
10
12.760000
20
11.189500
11
11.560000
21
11.029500
0
LINE
8
Layer 1
10
11.560000
20
11.029500
11
10.350000
21
10.819500
0
LINE
8
Layer 1
10
10.350000
20
10.819500
11
9.140000
21
10.569500
0
LINE
8
Layer 1
10
9.140000
20
10.569500
11
7.930000
21
10.279500
0
LINE
8
Layer 1
10
7.930000
20
10.279500
11
6.720000
21
9.929510
0
LINE
8
Layer 1
10
6.720000
20
9.929510
11
5.500000
21
9.509510
0
LINE
8
Layer 1
10
5.500000
20
9.509510
11
4.890000
21
9.259510
0
LINE
8
Layer 1
10
4.890000
20
9.259510
11
4.280000
21
8.969510
0
LINE
8
Layer 1
10
4.280000
20
8.969510
11
3.670000
21
8.629510
0
LINE
8
Layer 1
10
3.670000
20
8.629510
11
3.050000
21
8.189510
0
LINE
8
Layer 1
10
3.050000
20
8.189510
11
2.560000
21
7.759510
0
LINE
8
Layer 1
10
2.560000
20
7.759510
11
2.310000
21
7.519510
0
LINE
8
Layer 1
10
2.310000
20
7.519510
11
2.060000
21
7.239510
0
LINE
8
Layer 1
10
2.060000
20
7.239510
11
1.930000
21
7.049510
0
LINE
8
Layer 1
10
1.930000
20
7.049510
11
1.870000
21
6.929510
0
LINE
8
Layer 1
10
1.870000
20
6.929510
11
1.830000
21
6.849510
0
LINE
8
Layer 1
10
1.830000
20
6.849510
11
1.800000
21
6.709510
0
LINE
8
Layer 1
10
1.800000
20
6.709510
11
1.820000
21
6.429510
0
LINE
8
Layer 1
10
1.820000
20
6.429510
11
1.850000
21
6.349510
0
LINE
8
Layer 1
10
1.850000
20
6.349510
11
1.900000
21
6.239510
0
LINE
8
Layer 1
10
1.900000
20
6.239510
11
2.020000
21
6.069510
0
LINE
8
Layer 1
10
2.020000
20
6.069510
11
2.250000
21
5.839510
0
LINE
8
Layer 1
10
2.250000
20
5.839510
11
2.480000
21
5.669510
0
LINE
8
Layer 1
10
2.480000
20
5.669510
11
2.960000
21
5.449510
0
LINE
8
Layer 1
10
2.960000
20
5.449510
11
3.550000
21
5.289510
0
LINE
8
Layer 1
10
3.550000
20
5.289510
11
4.150000
21
5.159510
0
LINE
8
Layer 1
10
4.150000
20
5.159510
11
4.740000
21
5.039510
0
LINE
8
Layer 1
10
4.740000
20
5.039510
11
5.340000
21
4.959510
0
LINE
8
Layer 1
10
5.340000
20
4.959510
11
6.540000
21
4.839510
0
LINE
8
Layer 1
10
6.540000
20
4.839510
11
7.730000
21
4.739510
0
LINE
8
Layer 1
10
7.730000
20
4.739510
11
8.930000
21
4.659510
0
LINE
8
Layer 1
10
8.930000
20
4.659510
11
10.130000
21
4.599510
0
LINE
8
Layer 1
10
10.130000
20
4.599510
11
11.330000
21
4.559510
0
LINE
8
Layer 1
10
11.330000
20
4.559510
11
12.530000
21
4.529510
0
LINE
8
Layer 1
10
12.530000
20
4.529510
11
13.730000
21
4.509510
0
LINE
8
Layer 1
10
13.730000
20
4.509510
11
14.930000
21
4.499510
0
LINE
8
Layer 1
10
14.930000
20
4.499510
11
16.130000
21
4.499510
0
LINE
8
Layer 1
10
16.130000
20
4.499510
11
17.330000
21
4.499510
0
LINE
8
Layer 1
10
17.330000
20
4.499510
11
18.530000
21
4.499510
0
LINE
8
Layer 1
10
18.530000
20
4.499510
11
19.730000
21
4.499510
0
LINE
8
Layer 1
10
19.730000
20
4.499510
11
20.930000
21
4.509510
0
LINE
8
Layer 1
10
20.930000
20
4.509510
11
22.140000
21
4.509510
0
LINE
8
Layer 1
10
22.140000
20
4.509510
11
23.340000
21
4.509510
0
LINE
8
Layer 1
10
23.340000
20
4.509510
11
24.540000
21
4.509510
0
LINE
8
Layer 1
10
24.540000
20
4.509510
11
25.740000
21
4.519510
0
LINE
8
Layer 1
10
25.740000
20
4.519510
11
26.940000
21
4.519510
0
LINE
8
Layer 1
10
26.940000
20
4.519510
11
28.140000
21
4.519510
0
LINE
8
Layer 1
10
28.140000
20
4.519510
11
29.340000
21
4.519510
0
LINE
8
Layer 1
10
29.340000
20
4.519510
11
30.540000
21
4.519510
0
LINE
8
Layer 1
10
30.540000
20
4.519510
11
31.740000
21
4.529510
0
LINE
8
Layer 1
10
31.740000
20
4.529510
11
32.940000
21
4.529510
0
LINE
8
Layer 1
10
32.940000
20
4.529510
11
34.140000
21
4.529510
0
LINE
8
Layer 1
10
34.140000
20
4.529510
11
35.340000
21
4.529510
0
LINE
8
Layer 1
10
35.340000
20
4.529510
11
36.550000
21
4.529510
0
LINE
8
Layer 1
10
36.550000
20
4.529510
11
37.750000
21
4.539510
0
LINE
8
Layer 1
10
37.750000
20
4.539510
11
38.950000
21
4.539510
0
LINE
8
Layer 1
10
38.950000
20
4.539510
11
40.150000
21
4.539510
0
LINE
8
Layer 1
10
40.150000
20
4.539510
11
41.350000
21
4.539510
0
LINE
8
Layer 1
10
41.350000
20
4.539510
11
42.550000
21
4.549510
0
LINE
8
Layer 1
10
42.550000
20
4.549510
11
43.750000
21
4.549510
0
LINE
8
Layer 1
10
43.750000
20
4.549510
11
44.950000
21
4.549510
0
LINE
8
Layer 1
10
44.950000
20
4.549510
11
46.150000
21
4.549510
0
LINE
8
Layer 1
10
46.150000
20
4.549510
11
47.350000
21
4.549510
0
LINE
8
Layer 1
10
47.350000
20
4.549510
11
48.550000
21
4.559510
0
LINE
8
Layer 1
10
48.550000
20
4.559510
11
49.750000
21
4.559510
0
LINE
8
Layer 1
10
49.750000
20
4.559510
11
50.950000
21
4.559510
0
LINE
8
Layer 1
10
50.950000
20
4.559510
11
52.160000
21
4.559510
0
LINE
8
Layer 1
10
52.160000
20
4.559510
11
53.360000
21
4.559510
0
LINE
8
Layer 1
10
53.360000
20
4.559510
11
54.560000
21
4.569510
0
LINE
8
Layer 1
10
54.560000
20
4.569510
11
55.760000
21
4.569510
0
LINE
8
Layer 1
10
55.760000
20
4.569510
11
56.960000
21
4.569510
0
LINE
8
Layer 1
10
56.960000
20
4.569510
11
58.160000
21
4.569510
0
LINE
8
Layer 1
10
58.160000
20
4.569510
11
59.360000
21
4.579510
0
LINE
8
Layer 1
10
59.360000
20
4.579510
11
59.960000
21
4.579510
0
LINE
8
Layer 1
10
59.960000
20
4.579510
11
60.560000
21
4.579510
0
LINE
8
Layer 1
10
60.560000
20
4.579510
11
61.160000
21
4.579510
0
LINE
8
Layer 1
10
61.160000
20
4.579510
11
61.760000
21
4.579510
0
LINE
8
Layer 1
10
1.800000
20
6.709510
11
61.760000
21
4.619510
 0 
ENDSEC
 0 
EOF