<!DOCTYPE svg PUBLIC "-//W3C//DTD SVG 1.1//EN" "http://www.w3.org/Graphics/SVG/1.1/DTD/svg11.dtd">
<svg width="63.56mm" height="13.32mm" viewBox="0 0 63.56 13.32" xmlns="http://www.w3.org/2000/svg" version="1.1" xmlns:xlink="http://www.w3.org/1999/xlink">
<title>Airfoil plot (clarky-il) CLARK Y AIRFOIL by AirfoilTools.com</title>
<g transform="translate(1.8,6.6104948628205)"><g transform="scale(1,-1)"><line fill="none" stroke="green" stroke-width="0.03" x1="10" x2="10" y1="-4.01" y2="6.61"></line><line fill="none" stroke="green" stroke-width="0.03" x1="20" x2="20" y1="-4.01" y2="6.61"></line><line fill="none" stroke="green" stroke-width="0.03" x1="30" x2="30" y1="-4.01" y2="6.61"></line><line fill="none" stroke="green" stroke-width="0.03" x1="40" x2="40" y1="-4.01" y2="6.61"></line><line fill="none" stroke="green" stroke-width="0.03" x1="50" x2="50" y1="-4.01" y2="6.61"></line><line fill="none" stroke="green" stroke-width="0.03" x1="60" x2="60" y1="-4.01" y2="6.61"></line>
<path fill="none" stroke="red" stroke-width="0.06" d="M 59.96 -2.06 L 59.37 -1.89 L 58.78 -1.73 L 58.18 -1.57 L 57.59 -1.41 L 56.4 -1.09 L 55.21 -0.78 L 54.02 -0.48 L 52.83 -0.18 L 51.64 0.12 L 50.44 0.4 L 49.25 0.68 L 48.06 0.96 L 46.87 1.22 L 45.68 1.48 L 44.49 1.73 L 43.3 1.98 L 42.1 2.22 L 40.91 2.45 L 39.72 2.67 L 38.52 2.89 L 37.33 3.09 L 36.14 3.29 L 34.94 3.47 L 33.75 3.65 L 32.55 3.81 L 31.36 3.96 L 30.16 4.1 L 28.97 4.23 L 27.77 4.35 L 26.57 4.46 L 25.37 4.55 L 24.18 4.63 L 22.98 4.69 L 21.78 4.74 L 20.58 4.78 L 19.38 4.8 L 18.18 4.81 L 16.98 4.81 L 15.78 4.8 L 14.58 4.76 L 13.37 4.7 L 12.17 4.61 L 10.96 4.48 L 9.76 4.32 L 8.55 4.11 L 7.34 3.86 L 6.13 3.57 L 4.92 3.22 L 3.7 2.8 L 3.09 2.55 L 2.48 2.26 L 1.87 1.92 L 1.25 1.48 L 0.76 1.05 L 0.51 0.81 L 0.26 0.53 L 0.13 0.34 L 0.07 0.22 L 0.03 0.14 L 0 0 L 0.02 -0.28 L 0.05 -0.36 L 0.1 -0.47 L 0.22 -0.64 L 0.45 -0.87 L 0.68 -1.04 L 1.16 -1.26 L 1.75 -1.42 L 2.35 -1.55 L 2.94 -1.67 L 3.54 -1.75 L 4.74 -1.87 L 5.93 -1.97 L 7.13 -2.05 L 8.33 -2.11 L 9.53 -2.15 L 10.73 -2.18 L 11.93 -2.2 L 13.13 -2.21 L 14.33 -2.21 L 15.53 -2.21 L 16.73 -2.21 L 17.93 -2.21 L 19.13 -2.2 L 20.34 -2.2 L 21.54 -2.2 L 22.74 -2.2 L 23.94 -2.19 L 25.14 -2.19 L 26.34 -2.19 L 27.54 -2.19 L 28.74 -2.19 L 29.94 -2.18 L 31.14 -2.18 L 32.34 -2.18 L 33.54 -2.18 L 34.75 -2.18 L 35.95 -2.17 L 37.15 -2.17 L 38.35 -2.17 L 39.55 -2.17 L 40.75 -2.16 L 41.95 -2.16 L 43.15 -2.16 L 44.35 -2.16 L 45.55 -2.16 L 46.75 -2.15 L 47.95 -2.15 L 49.15 -2.15 L 50.36 -2.15 L 51.56 -2.15 L 52.76 -2.14 L 53.96 -2.14 L 55.16 -2.14 L 56.36 -2.14 L 57.56 -2.13 L 58.16 -2.13 L 58.76 -2.13 L 59.36 -2.13 L 59.96 -2.13 "></path>
<path fill="none" stroke="blue" stroke-width="0.06" d="M 0 0 L 59.96 -2.09 "></path>
<line fill="none" stroke="black" stroke-width="0.06" x1="-1.8" x2="61.76" y1="0" y2="0"></line>
<line fill="none" stroke="black" stroke-width="0.06" x1="0" x2="0" y1="-4.01" y2="6.61"></line>
</g>
</g>
<g transform="translate(0,10.623091267977)"><g transform="scale(0.6,0.6)"><text fill="rgb(48,48,144)" font-size="1.8" style="font-family:Arial,Helvetica,sans-serif;" x="1" y="2">Name = CLARK Y AIRFOIL</text><text fill="rgb(48,48,144)" font-size="1.8" style="font-family:Arial,Helvetica,sans-serif;" x="1" y="4">Chord = 60mm  Radius = 0mm  Thickness = 100%  Origin = 0%  Pitch = 2&#176; </text></g></g></svg>