<!DOCTYPE svg PUBLIC "-//W3C//DTD SVG 1.1//EN" "http://www.w3.org/Graphics/SVG/1.1/DTD/svg11.dtd">
<svg width="106mm" height="22.5mm" viewBox="0 0 106 22.5" xmlns="http://www.w3.org/2000/svg" version="1.1" xmlns:xlink="http://www.w3.org/1999/xlink">
<title>Airfoil plot (n0012-il) NACA 0012 AIRFOILS by AirfoilTools.com</title>
<g transform="translate(3,9.00172)"><g transform="scale(1,-1)"><line fill="none" stroke="green" stroke-width="0.05" x1="10" x2="10" y1="-9" y2="9"></line><line fill="none" stroke="green" stroke-width="0.05" x1="20" x2="20" y1="-9" y2="9"></line><line fill="none" stroke="green" stroke-width="0.05" x1="30" x2="30" y1="-9" y2="9"></line><line fill="none" stroke="green" stroke-width="0.05" x1="40" x2="40" y1="-9" y2="9"></line><line fill="none" stroke="green" stroke-width="0.05" x1="50" x2="50" y1="-9" y2="9"></line><line fill="none" stroke="green" stroke-width="0.05" x1="60" x2="60" y1="-9" y2="9"></line><line fill="none" stroke="green" stroke-width="0.05" x1="70" x2="70" y1="-9" y2="9"></line><line fill="none" stroke="green" stroke-width="0.05" x1="80" x2="80" y1="-9" y2="9"></line><line fill="none" stroke="green" stroke-width="0.05" x1="90" x2="90" y1="-9" y2="9"></line><line fill="none" stroke="green" stroke-width="0.05" x1="100" x2="100" y1="-9" y2="9"></line>
<path fill="none" stroke="red" stroke-width="0.1" d="M 100 0.13 L 99.94 0.13 L 99.77 0.16 L 99.48 0.2 L 99.07 0.26 L 98.55 0.33 L 97.91 0.42 L 97.17 0.52 L 96.31 0.63 L 95.34 0.76 L 94.27 0.9 L 93.1 1.05 L 91.82 1.22 L 90.45 1.39 L 88.98 1.57 L 87.43 1.76 L 85.78 1.96 L 84.05 2.16 L 82.24 2.37 L 80.36 2.58 L 78.4 2.8 L 76.38 3.02 L 74.3 3.23 L 72.16 3.45 L 69.97 3.67 L 67.73 3.88 L 65.45 4.09 L 63.14 4.3 L 60.79 4.5 L 58.42 4.69 L 56.03 4.88 L 53.62 5.05 L 51.21 5.22 L 48.79 5.37 L 46.38 5.51 L 43.97 5.63 L 41.58 5.74 L 39.21 5.83 L 36.86 5.9 L 34.55 5.96 L 32.27 5.99 L 30.03 6 L 27.84 5.99 L 25.7 5.96 L 23.62 5.9 L 21.6 5.82 L 19.64 5.72 L 17.76 5.59 L 15.95 5.44 L 14.22 5.26 L 12.57 5.07 L 11.02 4.85 L 9.55 4.6 L 8.18 4.34 L 6.9 4.06 L 5.73 3.76 L 4.66 3.45 L 3.69 3.12 L 2.83 2.77 L 2.09 2.41 L 1.45 2.03 L 0.93 1.65 L 0.52 1.25 L 0.23 0.84 L 0.06 0.43 L 0 0 L 0.06 -0.43 L 0.23 -0.84 L 0.52 -1.25 L 0.93 -1.65 L 1.45 -2.03 L 2.09 -2.41 L 2.83 -2.77 L 3.69 -3.12 L 4.66 -3.45 L 5.73 -3.76 L 6.9 -4.06 L 8.18 -4.34 L 9.55 -4.6 L 11.02 -4.85 L 12.57 -5.07 L 14.22 -5.26 L 15.95 -5.44 L 17.76 -5.59 L 19.64 -5.72 L 21.6 -5.82 L 23.62 -5.9 L 25.7 -5.96 L 27.84 -5.99 L 30.03 -6 L 32.27 -5.99 L 34.55 -5.96 L 36.86 -5.9 L 39.21 -5.83 L 41.58 -5.74 L 43.97 -5.63 L 46.38 -5.51 L 48.79 -5.37 L 51.21 -5.22 L 53.62 -5.05 L 56.03 -4.88 L 58.42 -4.69 L 60.79 -4.5 L 63.14 -4.3 L 65.45 -4.09 L 67.73 -3.88 L 69.97 -3.67 L 72.16 -3.45 L 74.3 -3.23 L 76.38 -3.02 L 78.4 -2.8 L 80.36 -2.58 L 82.24 -2.37 L 84.05 -2.16 L 85.78 -1.96 L 87.43 -1.76 L 88.98 -1.57 L 90.45 -1.39 L 91.82 -1.22 L 93.1 -1.05 L 94.27 -0.9 L 95.34 -0.76 L 96.31 -0.63 L 97.17 -0.52 L 97.91 -0.42 L 98.55 -0.33 L 99.07 -0.26 L 99.48 -0.2 L 99.77 -0.16 L 99.94 -0.13 L 100 -0.13 "></path>
<path fill="none" stroke="blue" stroke-width="0.1" d="M 0 0 L 100 0 "></path>
<line fill="none" stroke="black" stroke-width="0.1" x1="-3" x2="103" y1="0" y2="0"></line>
<line fill="none" stroke="black" stroke-width="0.1" x1="0" x2="0" y1="-9" y2="9"></line>
</g>
</g>
<g transform="translate(0,18.00344)"><g transform="scale(1,1)"><text fill="rgb(48,48,144)" font-size="1.8" style="font-family:Arial,Helvetica,sans-serif;" x="1" y="2">Name = NACA 0012 AIRFOILS</text><text fill="rgb(48,48,144)" font-size="1.8" style="font-family:Arial,Helvetica,sans-serif;" x="1" y="4">Chord = 100mm  Radius = 0mm  Thickness = 100%  Origin = 0%  Pitch = 0&#176; </text></g></g></svg>