999
"DXF R12 Output" (www.mydxf.blogspot.com)
 0 
SECTION
 2 
HEADER
 9 
$ACADVER
 1 
AC1009
 9 
$EXTMIN
 10 
 0 
 20 
 0 
 9 
$EXTMAX
 10 
 8.5 
 20 
 11 
 0 
ENDSEC
 0 
SECTION
 2 
ENTITIES
0
LINE
8
Layer 1
10
103.000000
20
13.628300
11
102.940000
21
13.628300
0
LINE
8
Layer 1
10
102.940000
20
13.628300
11
102.770000
21
13.658300
0
LINE
8
Layer 1
10
102.770000
20
13.658300
11
102.480000
21
13.698300
0
LINE
8
Layer 1
10
102.480000
20
13.698300
11
102.070000
21
13.758300
0
LINE
8
Layer 1
10
102.070000
20
13.758300
11
101.550000
21
13.828300
0
LINE
8
Layer 1
10
101.550000
20
13.828300
11
100.910000
21
13.918300
0
LINE
8
Layer 1
10
100.910000
20
13.918300
11
100.170000
21
14.018300
0
LINE
8
Layer 1
10
100.170000
20
14.018300
11
99.310000
21
14.128300
0
LINE
8
Layer 1
10
99.310000
20
14.128300
11
98.340000
21
14.258300
0
LINE
8
Layer 1
10
98.340000
20
14.258300
11
97.270000
21
14.398300
0
LINE
8
Layer 1
10
97.270000
20
14.398300
11
96.100000
21
14.548300
0
LINE
8
Layer 1
10
96.100000
20
14.548300
11
94.820000
21
14.718300
0
LINE
8
Layer 1
10
94.820000
20
14.718300
11
93.450000
21
14.888300
0
LINE
8
Layer 1
10
93.450000
20
14.888300
11
91.980000
21
15.068300
0
LINE
8
Layer 1
10
91.980000
20
15.068300
11
90.430000
21
15.258300
0
LINE
8
Layer 1
10
90.430000
20
15.258300
11
88.780000
21
15.458300
0
LINE
8
Layer 1
10
88.780000
20
15.458300
11
87.050000
21
15.658300
0
LINE
8
Layer 1
10
87.050000
20
15.658300
11
85.240000
21
15.868300
0
LINE
8
Layer 1
10
85.240000
20
15.868300
11
83.360000
21
16.078300
0
LINE
8
Layer 1
10
83.360000
20
16.078300
11
81.400000
21
16.298300
0
LINE
8
Layer 1
10
81.400000
20
16.298300
11
79.380000
21
16.518300
0
LINE
8
Layer 1
10
79.380000
20
16.518300
11
77.300000
21
16.728300
0
LINE
8
Layer 1
10
77.300000
20
16.728300
11
75.160000
21
16.948300
0
LINE
8
Layer 1
10
75.160000
20
16.948300
11
72.970000
21
17.168300
0
LINE
8
Layer 1
10
72.970000
20
17.168300
11
70.730000
21
17.378300
0
LINE
8
Layer 1
10
70.730000
20
17.378300
11
68.450000
21
17.588300
0
LINE
8
Layer 1
10
68.450000
20
17.588300
11
66.140000
21
17.798300
0
LINE
8
Layer 1
10
66.140000
20
17.798300
11
63.790000
21
17.998300
0
LINE
8
Layer 1
10
63.790000
20
17.998300
11
61.420000
21
18.188300
0
LINE
8
Layer 1
10
61.420000
20
18.188300
11
59.030000
21
18.378300
0
LINE
8
Layer 1
10
59.030000
20
18.378300
11
56.620000
21
18.548300
0
LINE
8
Layer 1
10
56.620000
20
18.548300
11
54.210000
21
18.718300
0
LINE
8
Layer 1
10
54.210000
20
18.718300
11
51.790000
21
18.868300
0
LINE
8
Layer 1
10
51.790000
20
18.868300
11
49.380000
21
19.008300
0
LINE
8
Layer 1
10
49.380000
20
19.008300
11
46.970000
21
19.128300
0
LINE
8
Layer 1
10
46.970000
20
19.128300
11
44.580000
21
19.238300
0
LINE
8
Layer 1
10
44.580000
20
19.238300
11
42.210000
21
19.328300
0
LINE
8
Layer 1
10
42.210000
20
19.328300
11
39.860000
21
19.398300
0
LINE
8
Layer 1
10
39.860000
20
19.398300
11
37.550000
21
19.458300
0
LINE
8
Layer 1
10
37.550000
20
19.458300
11
35.270000
21
19.488300
0
LINE
8
Layer 1
10
35.270000
20
19.488300
11
33.030000
21
19.498300
0
LINE
8
Layer 1
10
33.030000
20
19.498300
11
30.840000
21
19.488300
0
LINE
8
Layer 1
10
30.840000
20
19.488300
11
28.700000
21
19.458300
0
LINE
8
Layer 1
10
28.700000
20
19.458300
11
26.620000
21
19.398300
0
LINE
8
Layer 1
10
26.620000
20
19.398300
11
24.600000
21
19.318300
0
LINE
8
Layer 1
10
24.600000
20
19.318300
11
22.640000
21
19.218300
0
LINE
8
Layer 1
10
22.640000
20
19.218300
11
20.760000
21
19.088300
0
LINE
8
Layer 1
10
20.760000
20
19.088300
11
18.950000
21
18.938300
0
LINE
8
Layer 1
10
18.950000
20
18.938300
11
17.220000
21
18.758300
0
LINE
8
Layer 1
10
17.220000
20
18.758300
11
15.570000
21
18.568300
0
LINE
8
Layer 1
10
15.570000
20
18.568300
11
14.020000
21
18.348300
0
LINE
8
Layer 1
10
14.020000
20
18.348300
11
12.550000
21
18.098300
0
LINE
8
Layer 1
10
12.550000
20
18.098300
11
11.180000
21
17.838300
0
LINE
8
Layer 1
10
11.180000
20
17.838300
11
9.900000
21
17.558300
0
LINE
8
Layer 1
10
9.900000
20
17.558300
11
8.730000
21
17.258300
0
LINE
8
Layer 1
10
8.730000
20
17.258300
11
7.660000
21
16.948300
0
LINE
8
Layer 1
10
7.660000
20
16.948300
11
6.690000
21
16.618300
0
LINE
8
Layer 1
10
6.690000
20
16.618300
11
5.830000
21
16.268300
0
LINE
8
Layer 1
10
5.830000
20
16.268300
11
5.090000
21
15.908300
0
LINE
8
Layer 1
10
5.090000
20
15.908300
11
4.450000
21
15.528300
0
LINE
8
Layer 1
10
4.450000
20
15.528300
11
3.930000
21
15.148300
0
LINE
8
Layer 1
10
3.930000
20
15.148300
11
3.520000
21
14.748300
0
LINE
8
Layer 1
10
3.520000
20
14.748300
11
3.230000
21
14.338300
0
LINE
8
Layer 1
10
3.230000
20
14.338300
11
3.060000
21
13.928300
0
LINE
8
Layer 1
10
3.060000
20
13.928300
11
3.000000
21
13.498300
0
LINE
8
Layer 1
10
3.000000
20
13.498300
11
3.060000
21
13.068300
0
LINE
8
Layer 1
10
3.060000
20
13.068300
11
3.230000
21
12.658300
0
LINE
8
Layer 1
10
3.230000
20
12.658300
11
3.520000
21
12.248300
0
LINE
8
Layer 1
10
3.520000
20
12.248300
11
3.930000
21
11.848300
0
LINE
8
Layer 1
10
3.930000
20
11.848300
11
4.450000
21
11.468300
0
LINE
8
Layer 1
10
4.450000
20
11.468300
11
5.090000
21
11.088300
0
LINE
8
Layer 1
10
5.090000
20
11.088300
11
5.830000
21
10.728300
0
LINE
8
Layer 1
10
5.830000
20
10.728300
11
6.690000
21
10.378300
0
LINE
8
Layer 1
10
6.690000
20
10.378300
11
7.660000
21
10.048300
0
LINE
8
Layer 1
10
7.660000
20
10.048300
11
8.730000
21
9.738300
0
LINE
8
Layer 1
10
8.730000
20
9.738300
11
9.900000
21
9.438300
0
LINE
8
Layer 1
10
9.900000
20
9.438300
11
11.180000
21
9.158300
0
LINE
8
Layer 1
10
11.180000
20
9.158300
11
12.550000
21
8.898300
0
LINE
8
Layer 1
10
12.550000
20
8.898300
11
14.020000
21
8.648300
0
LINE
8
Layer 1
10
14.020000
20
8.648300
11
15.570000
21
8.428300
0
LINE
8
Layer 1
10
15.570000
20
8.428300
11
17.220000
21
8.238300
0
LINE
8
Layer 1
10
17.220000
20
8.238300
11
18.950000
21
8.058300
0
LINE
8
Layer 1
10
18.950000
20
8.058300
11
20.760000
21
7.908300
0
LINE
8
Layer 1
10
20.760000
20
7.908300
11
22.640000
21
7.778300
0
LINE
8
Layer 1
10
22.640000
20
7.778300
11
24.600000
21
7.678300
0
LINE
8
Layer 1
10
24.600000
20
7.678300
11
26.620000
21
7.598300
0
LINE
8
Layer 1
10
26.620000
20
7.598300
11
28.700000
21
7.538300
0
LINE
8
Layer 1
10
28.700000
20
7.538300
11
30.840000
21
7.508300
0
LINE
8
Layer 1
10
30.840000
20
7.508300
11
33.030000
21
7.498300
0
LINE
8
Layer 1
10
33.030000
20
7.498300
11
35.270000
21
7.508300
0
LINE
8
Layer 1
10
35.270000
20
7.508300
11
37.550000
21
7.538300
0
LINE
8
Layer 1
10
37.550000
20
7.538300
11
39.860000
21
7.598300
0
LINE
8
Layer 1
10
39.860000
20
7.598300
11
42.210000
21
7.668300
0
LINE
8
Layer 1
10
42.210000
20
7.668300
11
44.580000
21
7.758300
0
LINE
8
Layer 1
10
44.580000
20
7.758300
11
46.970000
21
7.868300
0
LINE
8
Layer 1
10
46.970000
20
7.868300
11
49.380000
21
7.988300
0
LINE
8
Layer 1
10
49.380000
20
7.988300
11
51.790000
21
8.128300
0
LINE
8
Layer 1
10
51.790000
20
8.128300
11
54.210000
21
8.278300
0
LINE
8
Layer 1
10
54.210000
20
8.278300
11
56.620000
21
8.448300
0
LINE
8
Layer 1
10
56.620000
20
8.448300
11
59.030000
21
8.618300
0
LINE
8
Layer 1
10
59.030000
20
8.618300
11
61.420000
21
8.808300
0
LINE
8
Layer 1
10
61.420000
20
8.808300
11
63.790000
21
8.998300
0
LINE
8
Layer 1
10
63.790000
20
8.998300
11
66.140000
21
9.198300
0
LINE
8
Layer 1
10
66.140000
20
9.198300
11
68.450000
21
9.408300
0
LINE
8
Layer 1
10
68.450000
20
9.408300
11
70.730000
21
9.618300
0
LINE
8
Layer 1
10
70.730000
20
9.618300
11
72.970000
21
9.828300
0
LINE
8
Layer 1
10
72.970000
20
9.828300
11
75.160000
21
10.048300
0
LINE
8
Layer 1
10
75.160000
20
10.048300
11
77.300000
21
10.268300
0
LINE
8
Layer 1
10
77.300000
20
10.268300
11
79.380000
21
10.478300
0
LINE
8
Layer 1
10
79.380000
20
10.478300
11
81.400000
21
10.698300
0
LINE
8
Layer 1
10
81.400000
20
10.698300
11
83.360000
21
10.918300
0
LINE
8
Layer 1
10
83.360000
20
10.918300
11
85.240000
21
11.128300
0
LINE
8
Layer 1
10
85.240000
20
11.128300
11
87.050000
21
11.338300
0
LINE
8
Layer 1
10
87.050000
20
11.338300
11
88.780000
21
11.538300
0
LINE
8
Layer 1
10
88.780000
20
11.538300
11
90.430000
21
11.738300
0
LINE
8
Layer 1
10
90.430000
20
11.738300
11
91.980000
21
11.928300
0
LINE
8
Layer 1
10
91.980000
20
11.928300
11
93.450000
21
12.108300
0
LINE
8
Layer 1
10
93.450000
20
12.108300
11
94.820000
21
12.278300
0
LINE
8
Layer 1
10
94.820000
20
12.278300
11
96.100000
21
12.448300
0
LINE
8
Layer 1
10
96.100000
20
12.448300
11
97.270000
21
12.598300
0
LINE
8
Layer 1
10
97.270000
20
12.598300
11
98.340000
21
12.738300
0
LINE
8
Layer 1
10
98.340000
20
12.738300
11
99.310000
21
12.868300
0
LINE
8
Layer 1
10
99.310000
20
12.868300
11
100.170000
21
12.978300
0
LINE
8
Layer 1
10
100.170000
20
12.978300
11
100.910000
21
13.078300
0
LINE
8
Layer 1
10
100.910000
20
13.078300
11
101.550000
21
13.168300
0
LINE
8
Layer 1
10
101.550000
20
13.168300
11
102.070000
21
13.238300
0
LINE
8
Layer 1
10
102.070000
20
13.238300
11
102.480000
21
13.298300
0
LINE
8
Layer 1
10
102.480000
20
13.298300
11
102.770000
21
13.338300
0
LINE
8
Layer 1
10
102.770000
20
13.338300
11
102.940000
21
13.368300
0
LINE
8
Layer 1
10
102.940000
20
13.368300
11
103.000000
21
13.368300
0
LINE
8
Layer 1
10
3.000000
20
13.498300
11
103.000000
21
13.498300
 0 
ENDSEC
 0 
EOF